<?xml version="1.0" encoding="utf-8"?>
<!-- Generator: Adobe Illustrator 22.1.0, SVG Export Plug-In . SVG Version: 6.00 Build 0)  -->
<svg version="1.1" xmlns="http://www.w3.org/2000/svg" xmlns:xlink="http://www.w3.org/1999/xlink" x="0px" y="0px"
	 viewBox="0 0 1211 900" style="enable-background:new 0 0 1211 900;" xml:space="preserve">
<style type="text/css">
	.st0{fill:none;stroke:#1CB71C;stroke-miterlimit:10;}
	.st1{fill:none;stroke:#1CB71C;stroke-width:6;stroke-miterlimit:10;}
</style>
<g id="Layer_2">
	<polygon class="st0" points="423.5,468.5 423.5,486.5 442.5,486.5 442.5,468.5 431.5,468.5 431.5,459.5 414.5,459.5 	"/>
</g>
<g id="Layer_3">
	<polygon class="st0" points="442.5,486.5 451.5,514.5 478.5,504.5 486.5,504.5 486.5,487.5 478.5,478.5 451.5,478.5 	"/>
</g>
<g id="Layer_4">
	<polygon class="st0" points="478.5,478.5 478.5,468.5 496.5,468.5 496.5,478.5 504.5,478.5 504.5,504.5 496.5,514.5 486.5,514.5 
		486.5,487.5 	"/>
</g>
<g id="Layer_5">
	<polygon class="st0" points="431.5,459.5 431.5,468.5 442.5,468.5 442.5,486.5 451.5,478.5 478.5,478.5 478.5,468.5 496.5,468.5 
		496.5,478.5 504.5,478.5 504.5,504.5 496.5,514.5 486.5,514.5 495.5,523.5 531.5,514.5 531.5,478.5 522.5,478.5 522.5,467.5 
		514.5,459.5 514.5,432.5 504.5,442.5 478.5,442.5 	"/>
</g>
<g id="Layer_6">
	<polygon class="st0" points="514.5,442.5 531.5,442.5 531.5,460.5 539.5,460.5 539.5,478.5 551.5,478.5 551.5,503.5 541.5,503.5 
		541.5,514.5 531.5,514.5 531.5,478.5 522.5,478.5 522.5,467.5 514.5,459.5 	"/>
</g>
<g id="Layer_7">
	<rect x="532.5" y="450.5" class="st0" width="7" height="10"/>
</g>
<g id="Layer_8">
	<polygon class="st0" points="539.5,450.5 539.5,478.5 551.5,478.5 551.5,503.5 567.5,503.5 567.5,494.5 559.5,486.5 559.5,450.5 	
		"/>
</g>
<g id="Layer_9">
	<polygon class="st0" points="531.5,514.5 541.5,514.5 541.5,503.5 567.5,503.5 567.5,494.5 559.5,486.5 559.5,450.5 613.5,442.5 
		684.5,415.5 684.5,289.5 694.5,289.5 702.5,280.5 730.5,280.5 730.5,271.5 739.5,271.5 739.5,261.5 748.5,261.5 748.5,252.5 
		756.5,252.5 910.5,315.5 910.5,324.5 900.5,335.5 900.5,370.5 927.5,370.5 936.5,360.5 946.5,360.5 946.5,370.5 990.5,370.5 
		990.5,360.5 1000.5,351.5 1007.5,360.5 1026.5,360.5 1026.5,370.5 1036.5,370.5 1044.5,379.5 1055.5,379.5 1063.5,387.5 
		1072.5,387.5 1072.5,407.5 1080.5,415.5 1045.5,423.5 1045.5,442.5 1035.5,442.5 1044.5,450.5 1044.5,459.5 1035.5,459.5 
		1035.5,477.5 1027.5,487.5 1027.5,539.5 1018.5,539.5 1018.5,550.5 1008.5,540.5 999.5,540.5 999.5,549.5 991.5,549.5 927.5,603.5 
		927.5,621.5 919.5,621.5 919.5,631.5 910.5,631.5 910.5,639.5 901.5,648.5 891.5,648.5 891.5,657.5 882.5,657.5 882.5,667.5 
		875.5,667.5 875.5,675.5 864.5,675.5 855,685 847.5,685 838.3,694.3 838.3,719.5 828.5,719.5 828.5,730.5 819.5,730.5 819.5,738.5 
		810.5,738.5 810.5,747.5 802.5,747.5 802.5,756.5 792.5,756.5 783,766 775.5,766 767.3,757.8 756.5,757.8 756.5,765.5 766.5,765.5 
		766.5,791.5 756.5,791.5 756.5,802.5 747.5,811.5 747.5,819.5 738.5,819.5 738.5,827.5 728.5,837.5 728.5,864.5 709.5,864.5 
		692.5,875.5 658.5,883.5 648.5,865.5 648.5,855.5 639.5,855.5 639.5,864.5 631.5,864.5 631.5,854.5 623.5,846.5 623.5,828.5 
		613.5,812.5 613.5,783.5 604.5,783.5 604.5,755.5 596,747 596,712.5 586.5,712.5 586.5,694.5 576.5,684.5 551.5,588.5 551.5,567.5 
		540.5,567.5 540.5,538.5 	"/>
</g>
<g id="Layer_10">
	<polyline class="st0" points="422.5,486.5 342.5,504.5 342.5,514.5 316.5,514.5 308,523 279.5,523 272.3,515.8 163.5,515.8 
		163.5,478.5 171.5,478.5 171.5,460.5 154.5,450.5 153.5,439.5 144.5,416.5 144.5,406.5 135.5,406.5 135.5,396.5 125.5,395.5 
		119.5,388.5 	"/>
	<polyline class="st0" points="81.5,405.5 90.5,415.5 99.5,407.5 99.5,388.5 127.5,388.5 118.5,379.5 118.5,361.5 127.5,361.5 
		127.5,342.5 136.5,342.5 136.5,324.5 145.5,324.5 145.5,306.5 163.5,306.5 163.5,298.5 199.5,298.5 208.5,307.5 217.5,307.5 
		226.5,316.5 234.5,316.5 234.5,324.5 252.5,324.5 261.5,333.5 270.5,333.5 270.5,343.5 279.5,343.5 279.5,334.5 289.5,334.5 
		279,324 288.5,324 288.5,314.5 280,306 280,297.5 270.5,297.5 270.5,287.5 261.5,287.5 261.5,279.5 252.5,270.5 263.5,270.5 
		263.5,262.5 271.5,252.5 262.5,243.5 271.5,234.5 279.5,234.5 279.5,226.5 288.5,226.5 271.5,143.5 271.5,126.5 325.5,108.5 
		377.5,99.5 403.5,91.5 418.5,90.5 461.5,72.5 521.5,135.5 540.5,135.5 540.5,108.5 549.5,100.5 576.5,100.5 576.5,90.5 604.5,90.5 
		624.5,82.5 668.5,82.5 683.5,72.5 703.5,72.5 703.5,63.5 730.5,36.5 730.5,27.5 739.5,27.5 739.5,18.5 748.5,18.5 757.5,9.5 
		767.5,9.5 767.5,-2.5 	"/>
</g>
<g id="Layer_11">
	<polyline class="st0" points="393.5,-0.5 395.5,21.5 415.5,90.5 	"/>
</g>
<g id="Layer_12">
	<polygon class="st0" points="459.5,306.5 478.5,306.5 469.5,298.5 469.5,288.5 478.5,288.5 478.5,278.5 469.5,263.5 459.5,262.5 
		459.5,234.5 450.5,234.5 443.5,243.5 450.5,261.5 451.5,289.5 	"/>
</g>
<g id="Layer_13">
	<polygon class="st0" points="469.5,288.5 477.5,288.5 486.5,279.5 504.5,279.5 514.5,288.5 514.5,298.5 504.5,307.5 493.5,307.5 
		479.5,316.5 468.5,316.5 468.5,306.5 478.5,306.5 469.5,298.5 	"/>
</g>
<g id="Layer_14">
	<polygon class="st0" points="468.5,316.5 479.5,334.5 488.5,334.5 497.5,324.5 524.5,324.5 532.5,315.5 523.5,308.5 523.5,298.5 
		514.5,298.5 504.5,307.5 493.5,307.5 479.5,316.5 	"/>
</g>
<g id="Layer_15">
	<polygon class="st0" points="504.5,279.5 514.5,270.5 514.5,280.5 	"/>
</g>
<g id="Layer_16">
	<polyline class="st0" points="1080.5,415.5 1080.5,406.5 1098.5,406.5 1098.5,416.5 1107.5,416.5 1107.5,425.5 1134.5,425.5 
		1142,433 1197.5,433 1207.3,423.3 1211.5,423.3 	"/>
</g>
<g id="Layer_17">
	<polyline class="st0" points="838.5,915.5 838.5,891.5 829,882 829,820.5 839.5,820.5 839.5,803.5 855.5,784.5 855.5,774.5 
		864.5,766.5 892.5,766.5 901.5,755.5 920.5,755.5 927.5,747.5 936.5,747.5 936.5,738.5 982.5,738.5 992.5,729.5 1000.5,729.5 
		1009.5,720.5 1018.5,720.5 1018.5,694.5 1044.5,704.5 1044.5,693.5 1035.5,676.5 1045.5,667.5 1071.5,675.5 1072.5,666.5 
		1081.5,667.5 1071.5,657.5 1053.5,657.5 1053.5,638.5 1065.5,638.5 1090.5,649.5 1099.5,639.5 1063.5,622.5 1063.5,611.5 
		1054.5,611.5 1045.5,550.5 1036.5,539.5 1027.5,539.5 1018.5,539.5 1018.5,550.5 1008.5,540.5 999.5,540.5 999.5,549.5 
		991.5,549.5 927.5,603.5 927.5,621.5 919.5,621.5 919.5,631.5 910.5,631.5 910.5,639.5 901.5,648.5 891.5,648.5 891.5,657.5 
		882.5,657.5 882.5,667.5 875.5,667.5 875.5,675.5 864.5,675.5 855.5,684.5 847.5,684.5 837.5,694.5 837.5,719.5 828.5,719.5 
		828.5,730.5 819.5,730.5 819.5,738.5 810.5,738.5 810.5,747.5 802.5,747.5 802.5,756.5 792.5,756.5 783.5,766.5 775.5,766.5 
		767,758 756.5,758 756.5,765.5 766.5,765.5 766.5,791.5 756.5,791.5 756.5,802.5 747.5,811.5 747.5,819.5 738.5,819.5 738.5,827.5 
		728.5,837.5 728.5,864.5 709.5,864.5 692.5,875.5 657.5,883.5 648.5,892.5 659.5,900.5 659.5,911.5 665.5,917.5 	"/>
</g>
<g id="Layer_18">
	<g>
		<path class="st1" d="M106.5-0.5l-3,82l-14,23v131l-8,15v65l-9,13v55l-18,62v73l-22,41v53l-12,26c0,0,6,95,3,110s56,92,56,92l14,94
			"/>
		<path class="st1" d="M168,915l-41-62l28,3l24-1l31-14c0,0,5,4,7,4s18,4,18,4l18,14l1,17l11,18l4,23"/>
		<path class="st1" d="M391,917l14-13v-14l12-24l-16-11l-7-17l-16-20v-22l-18-34c0,0-30,7-29,0s1-7,0-13s-9-29-9-29s-13-34-15-33
			s-13-11-19-18s-19-22-19-22l-11-21v-5c0,0,9,2,13,3s26,2,26,2h12l-3,34c0,0,7,26,13,30s7,7,13,6s13-4,17-5s11,0,21,7s25,22,25,22
			s9,25,19,34s17,29,17,29l21,23l15-2l19-1c0,0,14,13,18,14s8,10,10,15s13,20,13,25s4,26,4,26l-15,34"/>
	</g>
</g>
</svg>
